<svg xmlns="http://www.w3.org/2000/svg" viewBox="0 0 960 420">
  <defs>
    <linearGradient id="g" x1="0" y1="0" x2="1" y2="1">
      <stop offset="0" stop-color="#4F46E5" stop-opacity=".18"/>
      <stop offset="1" stop-color="#06B6D4" stop-opacity=".18"/>
    </linearGradient>
  </defs>
  <rect width="960" height="420" rx="20" fill="url(#g)"/>
  <g transform="translate(80,70)">
    <rect width="360" height="240" rx="14" fill="#fff" stroke="#e8ebf3"/>
    <rect x="24" y="32" width="260" height="18" rx="9" fill="#4F46E5"/>
    <rect x="24" y="66" width="300" height="10" rx="5" fill="#e6ebff"/>
    <rect x="24" y="86" width="220" height="10" rx="5" fill="#eef2ff"/>
    <circle cx="320" cy="36" r="10" fill="#10B981"/>
    <path d="M315 36l4 4 7-7" stroke="#fff" stroke-width="2" fill="none" stroke-linecap="round" stroke-linejoin="round"/>
  </g>
  <g transform="translate(480,70)" font-family="Inter, system-ui" font-size="13">
    <rect width="400" height="240" rx="14" fill="#fff" stroke="#e8ebf3"/>
    <text x="22" y="40" font-weight="700" fill="#111827">AI Risk & Oversight</text>
    <rect x="22" y="60" width="356" height="12" rx="6" fill="#e6ebff"/>
    <rect x="22" y="86" width="260" height="12" rx="6" fill="#eef2ff"/>
    <rect x="22" y="130" width="356" height="80" rx="8" fill="#f8fafc" stroke="#eef2ff"/>
    <text x="32" y="152" fill="#6b7280">HITL, AIA,/text>
  </g>
</svg>
