<svg xmlns="http://www.w3.org/2000/svg" viewBox="0 0 960 420">
  <defs>
    <linearGradient id="g27701" x1="0" y1="0" x2="1" y2="1">
      <stop offset="0" stop-color="#4F46E5" stop-opacity=".18"/>
      <stop offset="1" stop-color="#06B6D4" stop-opacity=".18"/>
    </linearGradient>
  </defs>

  <!-- Background -->
  <rect width="960" height="420" rx="20" fill="url(#g27701)"/>

  <!-- Left: PIMS overview card -->
  <g transform="translate(80,70)" font-family="Inter, system-ui" font-size="13">
    <rect width="360" height="260" rx="14" fill="#fff" stroke="#e8ebf3"/>

    <!-- Header -->
    <rect x="22" y="26" width="220" height="16" rx="8" fill="#4F46E5"/>
    <rect x="22" y="52" width="240" height="10" rx="5" fill="#e6ebff"/>

    <!-- Trend: Privacy incidents -->
    <g transform="translate(22,76)">
      <rect width="316" height="110" rx="10" fill="#f8fafc" stroke="#eef2ff"/>
      <line x1="20" y1="86" x2="296" y2="86" stroke="#e5e7eb"/>
      <line x1="20" y1="18" x2="20" y2="86" stroke="#e5e7eb"/>
      <path d="M20,74 L70,66 L120,64 L170,56 L220,44 L270,34"
            fill="none" stroke="#4F46E5" stroke-width="2.5"/>
      <circle cx="270" cy="34" r="4" fill="#4F46E5"/>
      <rect x="206" y="14" rx="8" ry="8" width="74" height="20" fill="#ecfdf5" stroke="#d1fae5"/>
      <text x="243" y="28" text-anchor="middle" font-size="12" fill="#065f46" font-weight="700">−32%</text>
      <text x="24" y="22" font-size="12" fill="#111827" font-weight="700">Privacy incidents trend</text>
      <text x="24" y="38" font-size="11" fill="#6b7280">Lower is better</text>
    </g>

    <!-- micro tiles -->
    <g transform="translate(22,196)">
      <rect width="86" height="44" rx="10" fill="#ffffff" stroke="#eef2ff"/>
      <rect x="94" width="86" height="44" rx="10" fill="#ffffff" stroke="#eef2ff"/>
      <rect x="188" width="86" height="44" rx="10" fill="#ffffff" stroke="#eef2ff"/>
      <rect x="282" width="56" height="44" rx="10" fill="#ffffff" stroke="#eef2ff"/>
      <text x="43"  y="27" text-anchor="middle" font-size="12" fill="#111827">ROPA</text>
      <text x="137" y="27" text-anchor="middle" font-size="12" fill="#111827">DPIA</text>
      <text x="231" y="27" text-anchor="middle" font-size="12" fill="#111827">Rights</text>
      <text x="310" y="27" text-anchor="middle" font-size="12" fill="#111827">DCR</text>
    </g>

    <text x="182" y="244" text-anchor="middle" font-size="12" fill="#6b7280">
      ROPA • DPIA • Subject Rights • Data Classification
    </text>
  </g>

  <!-- Right: Controls & evidence -->
  <g transform="translate(480,70)" font-family="Inter, system-ui" font-size="13">
    <rect width="400" height="260" rx="14" fill="#fff" stroke="#e8ebf3"/>
    <text x="22" y="36" font-weight="700" fill="#111827">PIMS Controls &amp; Evidence</text>
    <rect x="22" y="56" width="300" height="12" rx="6" fill="#e6ebff"/>
    <rect x="22" y="78" width="220" height="12" rx="6" fill="#eef2ff"/>

    <rect x="22" y="112" width="356" height="112" rx="8" fill="#f8fafc" stroke="#eef2ff"/>
    <text x="32" y="136" fill="#6b7280">Policies • ROPA exports • SAR logs</text>
    <circle cx="40" cy="156" r="4" fill="#4F46E5"/><rect x="50" y="152" width="250" height="8" rx="4" fill="#e6ebff"/>
    <circle cx="40" cy="176" r="4" fill="#4F46E5"/><rect x="50" y="172" width="220" height="8" rx="4" fill="#eef2ff"/>
    <circle cx="40" cy="196" r="4" fill="#4F46E5"/><rect x="50" y="192" width="280" height="8" rx="4" fill="#eef2ff"/>

    <circle cx="362" cy="32" r="10" fill="#10B981"/>
    <path d="M357 32l4 4 7-7" stroke="#fff" stroke-width="2" fill="none" stroke-linecap="round" stroke-linejoin="round"/>
  </g>

  <text x="50%" y="370" font-family="Inter, system-ui" font-size="22" text-anchor="middle" fill="#111827" font-weight="700">
    ISO 27701 — Privacy Information Management (PIMS)
  </text>
</svg>
