<!-- public/assets/illus-disp-ism-irap.svg -->
<svg xmlns="http://www.w3.org/2000/svg" viewBox="0 0 720 470">
  <defs>
    <linearGradient id="g" x1="0" y1="0" x2="1" y2="1">
      <stop offset="0" stop-color="#4F46E5" stop-opacity=".16"/>
      <stop offset="1" stop-color="#06B6D4" stop-opacity=".16"/>
    </linearGradient>
  </defs>

  <rect width="720" height="470" rx="26" fill="url(#g)"/>

  <!-- Shield -->
  <g transform="translate(90,90)">
    <rect x="0" y="0" width="300" height="290" rx="16" fill="#fff" stroke="#e8ebf3"/>
    <path d="M150 56 L240 96 V160 c0 64-42 116-90 132-48-16-90-68-90-132 V96z" fill="#eef2ff" stroke="#dbe2ff"/>
    <path d="M150 80 L220 110 V160 c0 46-30 84-70 98-40-14-70-52-70-98 V110z" fill="#4F46E5" opacity=".18"/>
    <circle cx="150" cy="140" r="20" fill="#10B981" opacity=".9"/>
    <path d="M142 140l7 7 12-12" fill="none" stroke="#fff" stroke-width="3" stroke-linecap="round" stroke-linejoin="round"/>
    <text x="24" y="254" font-family="Inter, system-ui, -apple-system, Segoe UI, Roboto, sans-serif" font-size="12" fill="#6b7280">
      Evidence of controls, physical &amp; personnel
    </text>
  </g>

  <!-- Three streams -->
  <g transform="translate(420,70)" font-family="Inter, system-ui, -apple-system, Segoe UI, Roboto, sans-serif" font-size="12">
    <rect width="260" height="90" rx="12" fill="#fff" stroke="#e8ebf3"/>
    <text x="16" y="26" font-weight="700" fill="#111827">DISP</text>
    <rect x="16" y="44" width="228" height="10" rx="5" fill="#e6ebff"/>
    <rect x="16" y="64" width="180" height="10" rx="5" fill="#eef2ff"/>

    <g transform="translate(0,110)">
      <rect width="260" height="90" rx="12" fill="#fff" stroke="#e8ebf3"/>
      <text x="16" y="26" font-weight="700" fill="#111827">ISM alignment</text>
      <rect x="16" y="44" width="228" height="10" rx="5" fill="#e6ebff"/>
      <rect x="16" y="64" width="140" height="10" rx="5" fill="#eef2ff"/>
    </g>

    <g transform="translate(0,220)">
      <rect width="260" height="90" rx="12" fill="#fff" stroke="#e8ebf3"/>
      <text x="16" y="26" font-weight="700" fill="#111827">IRAP assessments</text>
      <rect x="16" y="44" width="228" height="10" rx="5" fill="#e6ebff"/>
      <rect x="16" y="64" width="200" height="10" rx="5" fill="#eef2ff"/>
    </g>
  </g>
</svg>
