<svg xmlns="http://www.w3.org/2000/svg" viewBox="0 0 720 470">
  <defs>
    <linearGradient id="g1" x1="0" y1="0" x2="1" y2="1">
      <stop offset="0" stop-color="#4F46E5" stop-opacity=".16"/>
      <stop offset="1" stop-color="#06B6D4" stop-opacity=".16"/>
    </linearGradient>
  </defs>
  <rect width="720" height="470" rx="26" fill="url(#g1)"/>
  <g opacity=".98">
    <rect x="48" y="56" width="624" height="160" rx="16" fill="#fff" stroke="#e8ebf3"/>
    <rect x="72" y="86" width="392" height="18" rx="9" fill="#4F46E5"/>
    <rect x="72" y="118" width="520" height="12" rx="6" fill="#cfd6ee"/>
    <rect x="72" y="140" width="420" height="12" rx="6" fill="#e7ebff"/>
  </g>
  <g>
    <rect x="48" y="242" width="192" height="168" rx="16" fill="#fff" stroke="#e8ebf3"/>
    <rect x="264" y="242" width="192" height="168" rx="16" fill="#fff" stroke="#e8ebf3"/>
    <rect x="480" y="242" width="192" height="168" rx="16" fill="#fff" stroke="#e8ebf3"/>
    <rect x="70" y="266" width="126" height="12" rx="6" fill="#9aa6e3"/>
    <rect x="286" y="266" width="126" height="12" rx="6" fill="#9aa6e3"/>
    <rect x="502" y="266" width="126" height="12" rx="6" fill="#9aa6e3"/>
    <rect x="70" y="290" width="142" height="10" rx="5" fill="#e6ebff"/>
    <rect x="286" y="290" width="142" height="10" rx="5" fill="#e6ebff"/>
    <rect x="502" y="290" width="142" height="10" rx="5" fill="#e6ebff"/>
  </g>
  <g>
    <circle cx="640" cy="88" r="14" fill="#4F46E5"/>
    <path d="M634 88l6 6 10-10" fill="none" stroke="#fff" stroke-width="2.5" stroke-linecap="round" stroke-linejoin="round"/>
  </g>
</svg>
