<svg xmlns="http://www.w3.org/2000/svg" viewBox="0 0 720 470">
  <defs>
    <linearGradient id="g" x1="0" y1="0" x2="1" y2="1">
      <stop offset="0" stop-color="#4F46E5" stop-opacity=".16"/>
      <stop offset="1" stop-color="#06B6D4" stop-opacity=".16"/>
    </linearGradient>
  </defs>

  <rect width="720" height="470" rx="26" fill="url(#g)"/>

  <!-- Header -->
  <g opacity=".98">
    <rect x="40" y="36" width="640" height="90" rx="16" fill="#fff" stroke="#e8ebf3"/>
    <rect x="60" y="62" width="200" height="18" rx="9" fill="#4F46E5"/>
    <rect x="60" y="88" width="420" height="12" rx="6" fill="#dbe2ff"/>
    <rect x="500" y="56" width="70" height="28" rx="14" fill="#eef7ff" stroke="#cfe7ff"/>
    <text x="535" y="75" font-family="Inter, system-ui" font-size="12" text-anchor="middle" fill="#2563eb">Type 1</text>
    <rect x="580" y="56" width="70" height="28" rx="14" fill="#ecfdf5" stroke="#bbf7d0"/>
    <text x="615" y="75" font-family="Inter, system-ui" font-size="12" text-anchor="middle" fill="#059669">Type 2</text>
  </g>

  <!-- Criteria bars -->
  <g font-family="Inter, system-ui" font-size="12" fill="#111827">
    <g transform="translate(60,150)">
      <text x="0" y="10" font-weight="700">Security</text>
      <rect x="180" y="0" width="380" height="10" rx="5" fill="#eef2ff"/>
      <rect x="180" y="0" width="320" height="10" rx="5" fill="#4F46E5"/>
    </g>
    <g transform="translate(60,185)">
      <text x="0" y="10" font-weight="700">Availability</text>
      <rect x="180" y="0" width="380" height="10" rx="5" fill="#eef2ff"/>
      <rect x="180" y="0" width="270" height="10" rx="5" fill="#4F46E5"/>
    </g>
    <g transform="translate(60,220)">
      <text x="0" y="10" font-weight="700">Processing Integrity</text>
      <rect x="180" y="0" width="380" height="10" rx="5" fill="#eef2ff"/>
      <rect x="180" y="0" width="240" height="10" rx="5" fill="#4F46E5"/>
    </g>
    <g transform="translate(60,255)">
      <text x="0" y="10" font-weight="700">Confidentiality</text>
      <rect x="180" y="0" width="380" height="10" rx="5" fill="#eef2ff"/>
      <rect x="180" y="0" width="300" height="10" rx="5" fill="#4F46E5"/>
    </g>
    <g transform="translate(60,290)">
      <text x="0" y="10" font-weight="700">Privacy</text>
      <rect x="180" y="0" width="380" height="10" rx="5" fill="#eef2ff"/>
      <rect x="180" y="0" width="210" height="10" rx="5" fill="#4F46E5"/>
    </g>
  </g>

  <!-- Evidence cards -->
  <g transform="translate(40,330)">
    <rect width="200" height="100" rx="12" fill="#fff" stroke="#e8ebf3"/>
    <text x="16" y="26" font-family="Inter" font-size="12" font-weight="700" fill="#111827">Controls mapping</text>
    <rect x="16" y="44" width="168" height="10" rx="5" fill="#e6ebff"/>
    <rect x="16" y="64" width="140" height="10" rx="5" fill="#eef2ff"/>
  </g>
  <g transform="translate(260,330)">
    <rect width="200" height="100" rx="12" fill="#fff" stroke="#e8ebf3"/>
    <text x="16" y="26" font-family="Inter" font-size="12" font-weight="700" fill="#111827">Evidence cadence</text>
    <rect x="16" y="44" width="168" height="10" rx="5" fill="#e6ebff"/>
    <rect x="16" y="64" width="120" height="10" rx="5" fill="#eef2ff"/>
  </g>
  <g transform="translate(480,330)">
    <rect width="200" height="100" rx="12" fill="#fff" stroke="#e8ebf3"/>
    <text x="16" y="26" font-family="Inter" font-size="12" font-weight="700" fill="#111827">Readiness status</text>
    <rect x="16" y="44" width="168" height="10" rx="5" fill="#e6ebff"/>
    <rect x="16" y="64" width="150" height="10" rx="5" fill="#eef2ff"/>
  </g>
</svg>
